<?xml version="1.0" encoding="UTF-8"?><svg id="b" xmlns="http://www.w3.org/2000/svg" width="365" height="271.22" viewBox="0 0 365 271.22"><defs><style>.d{fill:#f74f10;}.e{fill:#fff;}.f{fill:#63666a;}</style></defs><g id="c"><polygon class="f" points="146.58 266.01 146.58 248.6 157.03 248.6 157.03 251.02 149.53 251.02 149.53 255.79 156.2 255.79 156.2 258.21 149.53 258.21 149.53 263.59 157.03 263.59 157.03 266.01 146.58 266.01"/><rect class="f" x="159.91" y="248.6" width="2.89" height="17.41"/><path class="f" d="M173.18,258.71c0-2.44-.65-2.84-2-2.84-1.71,0-2.23.75-2.37,2.84h4.37ZM175.89,260.94h-7.12c.11,2.56.82,3.12,2.58,3.09,1.32-.02,2.74-.2,4.34-.55v2.4c-1.41.25-2.78.47-4.34.44-3.72-.08-5.41-1.55-5.41-6.45,0-4.48,1.63-6.25,5.23-6.23,3.83.02,4.69,1.58,4.72,6.39v.91Z"/><path class="f" d="M207.41,256.28h-.89c-1.13,0-2.39.19-3.27.77v8.96h-2.84v-12.07h2.48l.19.72c.99-.63,2.43-.92,3.53-.92h.79v2.53Z"/><path class="f" d="M224.95,265.97c-1.07.14-2.12.34-3.44.34-4.27,0-5.68-2.26-5.68-6.23,0-4.3,1.6-6.45,5.56-6.45,1.07,0,1.93.15,3.47.29v2.37c-1.32-.19-2.53-.35-3.47-.35-2.06,0-2.7,1.15-2.7,4.13,0,2.78.88,3.94,2.81,3.94.82,0,2.14-.17,3.44-.4v2.34Z"/><path class="f" d="M187.82,265.97c-1.07.14-2.12.34-3.44.34-4.27,0-5.68-2.26-5.68-6.23,0-4.3,1.6-6.45,5.57-6.45,1.07,0,1.93.15,3.47.29v2.37c-1.32-.19-2.53-.35-3.47-.35-2.07,0-2.7,1.15-2.7,4.13,0,2.78.88,3.94,2.81,3.94.83,0,2.14-.17,3.44-.4v2.34Z"/><path class="f" d="M230.48,266.01h-2.89v-12.07h2.89v12.07ZM230.53,252.49h-2.98v-2.85h2.98v2.85Z"/><path class="f" d="M212.8,266.01h-2.89v-12.07h2.89v12.07ZM212.85,252.49h-2.98v-2.85h2.98v2.85Z"/><path class="f" d="M240.68,256.09h-3.12v6.59c0,.91.19,1.27.72,1.27.64,0,1.58-.18,2.6-.37v2.35c-.83.11-1.79.32-2.6.32-2.67,0-3.56-1.05-3.56-3.56v-6.59h-1.93v-2.15h1.93v-3.37h2.84v3.37h3.12v2.15Z"/><path class="f" d="M197.66,256.09h-3.12v6.59c0,.91.19,1.27.72,1.27.63,0,1.58-.18,2.6-.37v2.35c-.83.11-1.79.32-2.6.32-2.67,0-3.56-1.05-3.56-3.56v-6.59h-1.93v-2.15h1.93v-3.37h2.84v3.37h3.12v2.15Z"/><path class="f" d="M254.26,253.94l-6.5,17.27h-3.06l2.29-5.9c-1.43-3.63-3.06-7.72-4.52-11.38h3.22l2.78,7.49c.91-2.62,1.76-4.96,2.67-7.49h3.11Z"/><path class="f" d="M335.58,256.28h-.89c-1.13,0-2.39.19-3.27.77v8.96h-2.84v-12.07h2.48l.19.72c.99-.63,2.43-.92,3.53-.92h.8v2.53Z"/><path class="f" d="M340.96,266.01h-2.89v-12.07h2.89v12.07ZM341.02,252.49h-2.98v-2.85h2.98v2.85Z"/><path class="f" d="M364.75,253.94l-6.51,17.27h-3.06l2.29-5.9c-1.43-3.63-3.06-7.72-4.52-11.38h3.23l2.78,7.49c.91-2.62,1.76-4.96,2.67-7.49h3.11Z"/><path class="f" d="M270.85,258.98l-2.04-6.06c-.66,1.98-1.31,3.91-2.03,6.06h4.07ZM266.05,261.29l-1.57,4.72h-3.22l6.12-17.41h2.87l6.12,17.41h-3.22l-1.57-4.72h-5.51Z"/><path class="f" d="M278.44,253.94h2.87v7.76c0,2.04.4,2.27,1.48,2.2,1.2-.08,1.98-.7,2.68-1.2v-8.77h2.84v12.07h-2.34l-.29-.82c-.75.58-2.23,1.13-3.25,1.12-2.51-.03-3.99-.82-3.99-4.57v-7.8Z"/><path class="f" d="M298.6,256.09h-3.06v6.59c0,.91.19,1.27.72,1.27.64,0,1.51-.05,2.53-.25v2.34c-.83.11-1.74.19-2.53.19-2.68,0-3.56-1.05-3.56-3.56v-6.59h-1.93v-2.15h1.93v-3.37h2.84v3.37h3.06v2.15Z"/><path class="f" d="M351.16,256.09h-3.05v6.59c0,.91.19,1.27.72,1.27.63,0,1.51-.05,2.53-.25v2.34c-.83.11-1.74.19-2.53.19-2.68,0-3.56-1.05-3.56-3.56v-6.59h-1.93v-2.15h1.93v-3.37h2.84v3.37h3.05v2.15Z"/><path class="f" d="M311.32,257.36v8.65h-2.86v-8.63c.02-1.24-.44-1.49-1.27-1.49-.74,0-2.06.4-2.9.75v9.36h-2.84v-17.41h2.84v5.66c.79-.32,2.06-.62,3-.62,2.67,0,4.01.91,4.03,3.72"/><path class="f" d="M322.55,259.96c0-3.34-.62-4.05-2.62-4.05s-2.59.65-2.59,4.05.74,4.08,2.59,4.08,2.62-.51,2.62-4.08M325.41,259.96c0,4.66-1.87,6.37-5.48,6.37s-5.48-1.71-5.48-6.37c0-4.3,1.74-6.31,5.48-6.31s5.48,2.01,5.48,6.31"/><path class="f" d="M11.25,266.01v-9.67c-.99,2.31-2.01,4.63-2.95,6.89h-2.4l-2.95-6.86v9.64H0v-17.41h2.78l4.33,10.47,4.3-10.47h2.78v17.41h-2.95Z"/><rect class="f" x="91" y="248.6" width="2.89" height="17.41"/><path class="f" d="M119.81,260.65h-2.32c-1.15-.03-1.73.46-1.73,1.64s.54,1.63,1.17,1.63c.83,0,2.16-.56,2.88-.93v-2.34ZM122.69,266.01h-2.56l-.26-.67c-.9.46-2.05.92-2.93.92-2.46,0-3.99-1.52-3.99-3.97,0-2.79,1.81-3.88,4.67-3.88h2.21v-1.14c0-.64-.27-1.34-1.53-1.38-1.36-.05-3.01.21-4.31.45v-2.34c1.6-.22,3.2-.38,4.47-.37,2.86.02,4.24,1.41,4.24,4v8.38Z"/><path class="f" d="M129.04,266.01h-2.87v-12.07h2.49l.3.75c1.07-.63,2.12-1.04,3.46-1.06,2.35-.04,3.55,1.35,3.55,3.56v8.82h-2.84v-8.76c0-.9-.44-1.31-1.07-1.28-.94.05-1.96.5-3.03,1.21v8.83Z"/><path class="f" d="M25.1,258.71c0-2.44-.65-2.84-2-2.84-1.71,0-2.23.75-2.37,2.84h4.37ZM27.82,260.94h-7.12c.11,2.56.82,3.12,2.58,3.09,1.32-.02,2.74-.2,4.34-.55v2.4c-1.41.25-2.78.47-4.34.44-3.72-.08-5.41-1.55-5.41-6.45,0-4.48,1.63-6.25,5.23-6.23,3.83.02,4.69,1.58,4.72,6.39v.91Z"/><path class="f" d="M47.47,256.28h-.89c-1.13,0-2.39.19-3.27.77v8.96h-2.84v-12.07h2.48l.19.72c.99-.63,2.43-.92,3.53-.92h.8v2.53Z"/><path class="f" d="M100.36,266.01h-2.89v-12.07h2.89v12.07ZM100.41,252.49h-2.98v-2.85h2.98v2.85Z"/><path class="f" d="M110.6,256.09h-3.12v6.59c0,.91.19,1.27.72,1.27.64,0,1.58-.18,2.6-.37v2.35c-.83.11-1.79.32-2.6.32-2.67,0-3.55-1.05-3.55-3.56v-6.59h-1.93v-2.15h1.93v-3.37h2.83v3.37h3.12v2.15Z"/><path class="f" d="M37.72,256.09h-3.12v6.59c0,.91.19,1.27.72,1.27.63,0,1.57-.18,2.59-.37v2.35c-.82.11-1.79.32-2.59.32-2.68,0-3.56-1.05-3.56-3.56v-6.59h-1.93v-2.15h1.93v-3.37h2.84v3.37h3.12v2.15Z"/><path class="f" d="M66.67,257.09v6.72c.1-.08.99.2,1.95.23,2.32.1,2.76-1.3,2.76-3.94,0-2.42-.31-4.18-1.89-4.18-1.09,0-2.81,1.17-2.81,1.17M63.86,253.93h2.42l.2.76s1.77-1.06,3.18-1.06c3.01,0,4.58,2,4.58,6.32,0,4.93-1.49,6.36-5.08,6.36-.85,0-2.38-.17-2.5-.2v5.09h-2.81v-17.28Z"/><path class="f" d="M85.01,259.96c0-3.34-.62-4.05-2.62-4.05s-2.59.65-2.59,4.05.74,4.08,2.59,4.08,2.62-.51,2.62-4.08M87.87,259.96c0,4.66-1.87,6.37-5.48,6.37s-5.48-1.71-5.48-6.37c0-4.3,1.74-6.31,5.48-6.31s5.48,2.01,5.48,6.31"/><path class="f" d="M57.76,259.96c0-3.34-.62-4.05-2.62-4.05s-2.59.65-2.59,4.05.74,4.08,2.59,4.08,2.62-.51,2.62-4.08M60.63,259.96c0,4.66-1.87,6.37-5.48,6.37s-5.48-1.71-5.48-6.37c0-4.3,1.74-6.31,5.48-6.31s5.48,2.01,5.48,6.31"/><polygon class="f" points="104.67 215.08 110.89 235.1 118.04 235.1 120.19 190.83 114.28 190.83 112.65 225.48 106.71 205.83 105.1 205.83 104.21 205.83 102.61 205.83 96.67 225.48 95.15 205.67 87.33 205.67 87.33 210.4 89.58 210.4 91.27 235.1 98.42 235.1 104.65 215.08 104.67 215.08"/><polygon class="f" points="141.21 215.08 147.43 235.1 154.59 235.1 156.74 190.83 150.84 190.83 149.2 225.48 143.25 205.83 141.65 205.83 140.75 205.83 139.16 205.83 133.21 225.48 131.7 205.67 123.88 205.67 123.88 210.4 126.13 210.4 127.82 235.1 134.97 235.1 141.19 215.08 141.21 215.08"/><path class="f" d="M295.56,226.51c0-5.99,4.07-9.71,9.94-9.71h7.16v-2.38c0-2.5-2.33-4.07-6.1-4.07-2.62,0-6.28.3-8.96.76v-4.89c3.25-.4,6.97-.52,9.36-.52,7.27,0,11.58,3.61,11.58,9.36v20.12h-5.87v-13.78h-7.33c-2.5,0-3.95,2.27-3.95,5.12,0,2.44,1.63,4.19,3.31,4.19.81,0,2.39-.11,4.36-.47v4.71c-1.45.18-3.55.41-4.48.41-5.58,0-9.01-3.72-9.01-8.84"/><path class="f" d="M0,207.17c4.01-1.11,7.74-1.75,12.16-1.75,7.97,0,10.7,3.55,10.7,9.6v20.08h-6.05v-20.02c0-3.72-.93-4.77-4.65-4.77-2.33,0-4.3.24-6.11.64v24.16H0v-27.93Z"/><path class="f" d="M39.09,235.1v-19.94c0-3.14-1.22-4.77-4.19-4.77-2.73,0-5.53.3-8.26.82v-5c3.37-.47,6.11-.58,8.61-.58,7.15,0,9.94,4.01,9.94,10.29v19.19h-6.1Z"/><path class="f" d="M58.57,235.47c-3.08,0-5.35-.23-7.91-.58v-5.24c2.73.64,5.35,1.1,7.97,1.1s4.42-1.16,4.42-3.55c0-1.74-.87-2.73-4.54-3.95-6.8-2.27-9.24-4.54-9.24-9.42,0-4.42,3.08-8.14,9.94-8.14,2.33,0,5.47.23,8.14.64v4.94c-3.84-.64-6.28-.82-8.14-.82-3.08,0-4.07,1.69-4.07,3.37s.93,2.79,3.84,3.84c8.32,2.96,10,4.88,10,9.54,0,5.41-3.55,8.26-10.41,8.26"/><polygon class="f" points="132.52 191.2 140.95 191.2 139.77 194.34 149.62 194.34 147.59 199.23 133.63 199.23 135.72 195.62 132.52 195.62 132.52 191.2"/><path class="f" d="M174.18,235.1v-19.94c0-3.14-1.22-4.77-4.19-4.77-2.73,0-5.52.3-8.26.82v-5c3.37-.47,6.11-.58,8.6-.58,7.15,0,9.95,4.01,9.95,10.29v19.19h-6.11Z"/><path class="f" d="M185.98,210.4h-2.04v-4.71h8.09v20.3c0,3.72,1.46,4.94,3.61,4.94,2.27,0,5.41-1.51,7.27-3.08v-22.15h5.99v29.48h-4.76l-.76-2.15c-2.27,1.51-5.29,2.73-7.79,2.73-6.51,0-9.6-2.79-9.6-9.83v-15.53Z"/><path class="f" d="M239.15,216.34v18.84h-6v-18.55c0-5.18-1.22-6.51-5.81-6.51s-5.82,1.33-5.82,6.51v3.2c.81-.87,2.16-1.51,3.43-1.51h4.77v5.12h-4.71c-1.92,0-3.49,1.69-3.49,3.95v7.79h-5.99v-18.84c0-7.44,3.31-10.99,11.8-10.99s11.81,3.55,11.81,10.99"/><path class="f" d="M253.16,235.47c-3.09,0-5.35-.23-7.91-.58v-5.24c2.73.64,5.35,1.1,7.97,1.1s4.42-1.16,4.42-3.55c0-1.74-.88-2.73-4.54-3.95-6.81-2.27-9.25-4.54-9.25-9.42,0-4.42,3.08-8.14,9.94-8.14,2.33,0,5.47.23,8.14.64v4.94c-3.84-.64-6.28-.82-8.14-.82-3.08,0-4.07,1.69-4.07,3.37s.93,2.79,3.84,3.84c8.32,2.96,10,4.88,10,9.54,0,5.41-3.55,8.26-10.41,8.26"/><path class="f" d="M268.28,235.12v-24.8h-2.11v-4.68h8.15v8.96h4.83c.69-.93,6.28-8.96,6.22-8.96h7.33c0,.06-7.33,9.54-7.39,9.59,3.43,1.11,6.22,4.42,6.22,8.84v11.11h-6.11v-11.11c0-3.2-1.46-4.48-4.07-4.48h-7.04v15.53h-6.05Z"/><path class="f" d="M324.29,230.41c2.21.29,4.25.4,5.93.4,3.61,0,5.7-2.55,5.7-10.06s-.99-10.52-5.18-10.52c-2.5,0-5.94.23-8.32.47v-4.88c3.08-.18,5.53-.35,8.37-.35,7.97,0,11.11,4.36,11.11,15.29,0,9.36-3.03,14.77-11.69,14.77-1.92,0-3.31-.06-5.93-.35v-4.77Z"/><path class="f" d="M344.99,215.75h6.17l4.13,14.89h.41c2.32,0,3.31-1.05,3.31-3.54v-16.69h-3.31v-4.71h9.3v21.4c0,5.17-2.73,8.31-9.3,8.31-1.51,0-3.72-.12-5.06-.29l-5.64-19.37Z"/><path class="f" d="M84.9,189.27v4.83c-3.72,1.34-3.6,5.7-3.6,10.18v26.23h3.2l-.81,4.59h-8.26v-30.77c0-2.47-.11-8.39,1.57-10.06h-8.48v-5h16.39Z"/><path class="e" d="M182.02,154.55c35.34,0,64.13-27.95,65.52-62.94l-2.41,2.41v1.67h-1.9v1.4h-2.01v.57h-18.45v1.78h-2.85v-9.41h-20v-.76h-5.62c-13.66-5.77-24.89,0-24.89,0h-2.89v1.06h-50.08c.73,35.59,29.8,64.21,65.56,64.21"/><path class="e" d="M179.87,46.8l.22-2.88s-1.27,1.2-1.43,2.88h-.92v1.03h8.04v-1.03h-5.91Z"/><rect class="e" x="167.3" y="68.93" width="28.92" height="12.3"/><path class="e" d="M173.18,81.85h16.11v4.95s-6.43-.85-7.06-.68l-.45-1.48-.51,1.37s-4.9.29-8.03,1.2l-.05-5.35Z"/><path class="e" d="M168.81,64.94l-2.23,1.86v1.06s-.1.3.39.32c.48.02,29.6,0,29.6,0,0,0,.13.09.29-.32l.08-1.25-2.27-1.67-2.19,2.57-21.55.06-2.11-2.63Z"/><path class="e" d="M181.37,25.81s-.2,1.05-.85,1.45c-.65.4-.97,1.4-.97,1.4,0,0,.94-.26,1.31-.12.37.14,1.28-1.05.51-2.73"/><path class="e" d="M179.5,49.66c0,.14-.12.26-.25.26-.15,0-.26-.12-.26-.26v-1.11c0-.14.11-.26.26-.26.14,0,.25.12.25.26v1.11Z"/><path class="e" d="M171.5,62.44l-1.99.06s-.74.43.06,1.08h2.02v3.05h17.88v-2.99h3.64s.94-.42,0-1.11h-17.48s-.57-5.61,4.04-10.53c0,0-7.51,1.96-8.17,10.45"/><path class="e" d="M272.09,89.34c0,49.34-40,89.34-89.34,89.34s-89.34-40-89.34-89.34S133.4,0,182.75,0s89.34,40,89.34,89.34"/><rect class="d" x="179.76" y="115.34" width="1.27" height="4"/><rect class="d" x="184.72" y="115.34" width="1.37" height="4"/><rect class="d" x="179.76" y="120.3" width="1.27" height="3.79"/><rect class="d" x="184.72" y="120.3" width="1.37" height="3.79"/><path class="d" d="M179.76,111.94h1.27v-4.1c-.77.9-1.27,2.33-1.27,3.94v.16Z"/><rect class="d" x="177.36" y="127.53" width=".68" height="6.1"/><rect class="d" x="182.4" y="144.18" width="21.14" height=".74"/><rect class="d" x="181.98" y="115.34" width="1.78" height="4"/><path class="d" d="M186.09,111.77c0-1.68-.54-3.16-1.37-4.05v4.21h1.37v-.16Z"/><rect class="d" x="159.77" y="139.51" width="21.61" height=".74"/><rect class="d" x="181.98" y="120.3" width="1.78" height="3.79"/><rect class="d" x="179.76" y="112.9" width="6.32" height="1.48"/><rect class="d" x="171.39" y="141.9" width="20.98" height=".74"/><path class="d" d="M183.76,107.03c-.27-.12-.55-.18-.85-.18-.32,0-.64.08-.94.22v4.86h1.78v-4.9Z"/><path class="d" d="M156.38,149.19c.59.25,1.19.5,1.79.74h.76v-.74h-2.55Z"/><path class="d" d="M146.91,144.18c.39.25.78.5,1.18.74h10.62v-.74h-11.8Z"/><path class="d" d="M143.58,141.9c.34.25.68.49,1.03.74h25.72v-.74h-26.75Z"/><path class="d" d="M140.5,139.51c.3.25.6.5.9.74h17.3v-.74h-18.21Z"/><polygon class="d" points="159.77 144.91 169.82 144.91 181.37 144.91 181.37 144.18 169.82 144.18 159.77 144.18 159.77 144.91"/><rect class="d" x="189.67" y="113.4" width="2.24" height="1.4"/><rect class="d" x="189.66" y="120.42" width="2.26" height="3.6"/><rect class="d" x="189.66" y="115.71" width="2.26" height="3.79"/><path class="d" d="M191.92,112.33c0-1.59-.89-3-2.26-3.85v4h2.26v-.15Z"/><rect class="d" x="196.26" y="127.55" width=".69" height="6.15"/><rect class="d" x="182.4" y="139.51" width="21.14" height=".74"/><path class="d" d="M204.83,149.92h1.15c.6-.23,1.2-.48,1.79-.74h-2.95v.74Z"/><path class="d" d="M211.78,147.3c.47-.24.93-.49,1.39-.73h-19.74v.73h18.34Z"/><path class="d" d="M193.67,152.65h3.6c.95-.23,1.88-.47,2.81-.74h-6.42v.74Z"/><rect class="d" x="171.62" y="151.92" width="20.99" height=".74"/><rect class="d" x="182.4" y="149.19" width="21.37" height=".74"/><path class="d" d="M216.05,144.91c.4-.24.79-.49,1.17-.74h-12.63v.74h11.46Z"/><path class="d" d="M222.74,140.24c.3-.24.6-.49.9-.74h-19.04v.74h18.14Z"/><path class="d" d="M219.53,142.63c.35-.24.69-.49,1.03-.74h-27.12v.74h26.09Z"/><rect class="d" x="202.24" y="113.47" width="9.55" height="1.41"/><path class="d" d="M202.24,112.4v.15h1.92v-3.89c-1.16.85-1.92,2.21-1.92,3.74"/><path class="d" d="M207.02,107.73c-.49,0-.97.07-1.42.21v4.62h2.69v-4.65c-.41-.11-.83-.17-1.27-.17"/><path class="d" d="M211.81,112.4c0-1.59-.82-3-2.06-3.84v3.99h2.06v-.15Z"/><rect class="d" x="205.6" y="120.49" width="2.69" height="3.6"/><rect class="d" x="202.24" y="120.49" width="1.92" height="3.6"/><rect class="d" x="209.74" y="120.49" width="2.06" height="3.6"/><rect class="d" x="205.6" y="115.78" width="2.69" height="3.79"/><rect class="d" x="209.74" y="115.78" width="2.06" height="3.79"/><rect class="d" x="202.24" y="115.78" width="1.92" height="3.79"/><rect class="d" x="173.89" y="112.86" width="1.81" height="1.48"/><path class="d" d="M175.81,108.06c-1.16.85-1.92,2.21-1.92,3.74v.15h1.92v-3.89Z"/><rect class="d" x="225.73" y="113.47" width="9.55" height="1.41"/><path class="d" d="M225.73,112.4v.15h1.92v-3.89c-1.16.85-1.92,2.21-1.92,3.74"/><path class="d" d="M230.51,107.73c-.49,0-.97.07-1.42.21v4.62h2.7v-4.65c-.41-.11-.84-.17-1.28-.17"/><path class="d" d="M235.3,112.4c0-1.59-.82-3-2.06-3.84v3.99h2.06v-.15Z"/><rect class="d" x="229.09" y="120.49" width="2.7" height="3.6"/><rect class="d" x="225.73" y="120.49" width="1.92" height="3.6"/><rect class="d" x="233.23" y="120.49" width="2.06" height="3.6"/><rect class="d" x="229.09" y="115.78" width="2.7" height="3.79"/><rect class="d" x="233.23" y="115.78" width="2.06" height="3.79"/><rect class="d" x="225.73" y="115.78" width="1.92" height="3.79"/><polygon class="d" points="215.36 124.07 218.26 124.07 218.26 114.97 218.26 106.11 215.36 106.11 215.36 114.97 215.36 124.07"/><rect class="d" x="195.59" y="106.04" width="3.18" height="17.96"/><path class="d" d="M123.28,107.73c-.5,0-.97.07-1.42.21v4.62h2.69v-4.65c-.41-.11-.83-.17-1.27-.17"/><rect class="d" x="171.39" y="146.57" width="20.98" height=".73"/><path class="d" d="M170.33,147.27h-18.34c-.47-.24-.93-.48-1.39-.73h19.73v.73Z"/><rect class="d" x="159.98" y="149.19" width="21.37" height=".74"/><path class="d" d="M170.3,152.64h-3.61c-.95-.23-1.88-.47-2.81-.74h6.42v.74Z"/><path class="d" d="M133.46,132.76c.23.25.45.5.68.75v-5.97h-.68v5.21Z"/><rect class="d" x="142.86" y="127.55" width=".68" height="7.27"/><rect class="d" x="158.71" y="131.05" width="1.32" height="6.56"/><path class="d" d="M128.05,113.47h-6.64c.19.47.39.94.59,1.41h6.06v-1.41Z"/><path class="d" d="M126,108.56v4h2.07v-.15c0-1.6-.82-3-2.07-3.85"/><path class="d" d="M126,122.69c.28.47.57.94.87,1.4h1.2v-3.6h-2.07v2.2Z"/><path class="d" d="M124.34,119.76l.17.26.05-4.23h-2.17c.6,1.35,1.26,2.67,1.95,3.97"/><rect class="d" x="126" y="115.78" width="2.07" height="3.79"/><rect class="d" x="186.72" y="127.53" width=".68" height="6.14"/><rect class="d" x="205.8" y="127.51" width=".68" height="6.15"/><rect class="d" x="215.21" y="127.52" width=".68" height="6.12"/><path class="d" d="M226.71,134.88h1.99c.21-.22.42-.43.63-.65h-2.62v.65Z"/><rect class="d" x="224.49" y="127.55" width=".68" height="6.4"/><path class="d" d="M233.83,127.53v1.46c.34-.44.67-.88,1-1.32v-.14h-1Z"/><path class="d" d="M119.84,109.15c.07.21.14.41.21.61.08.25.16.49.25.73.07.19.13.39.2.58v-2.51c-.23.17-.45.37-.64.58,0,0,0,0,0,0"/><path class="d" d="M138.85,107.58c-.49,0-.97.07-1.42.21v4.62h2.7v-4.65c-.41-.11-.83-.17-1.28-.17"/><path class="d" d="M134.07,112.26v.15h1.92v-3.89c-1.16.85-1.92,2.21-1.92,3.74"/><path class="d" d="M143.64,112.26c0-1.59-.82-3-2.06-3.85v4h2.06v-.15Z"/><rect class="d" x="137.43" y="120.34" width="2.7" height="3.6"/><rect class="d" x="134.07" y="120.34" width="1.92" height="3.6"/><rect class="d" x="141.57" y="120.34" width="2.06" height="3.6"/><rect class="d" x="137.43" y="115.64" width="2.7" height="3.8"/><rect class="d" x="134.07" y="115.64" width="1.92" height="3.8"/><rect class="d" x="134.07" y="113.32" width="9.55" height="1.41"/><rect class="d" x="166.45" y="106.11" width="2.91" height="17.96"/><rect class="d" x="153.32" y="113.47" width="9.55" height="1.41"/><path class="d" d="M155.24,108.67c-1.16.85-1.92,2.21-1.92,3.74v.15h1.92v-3.89Z"/><path class="d" d="M159.38,107.91c-.4-.11-.83-.17-1.27-.17-.49,0-.97.07-1.42.21v4.62h2.69v-4.65Z"/><path class="d" d="M160.82,108.56v3.99h2.07v-.15c0-1.6-.82-3-2.07-3.84"/><rect class="d" x="156.68" y="120.49" width="2.69" height="3.6"/><rect class="d" x="153.32" y="120.49" width="1.92" height="3.6"/><rect class="d" x="160.82" y="120.49" width="2.07" height="3.6"/><rect class="d" x="156.68" y="115.78" width="2.69" height="3.79"/><rect class="d" x="160.82" y="115.78" width="2.07" height="3.79"/><rect class="d" x="153.32" y="115.78" width="1.92" height="3.79"/><path class="d" d="M192.96,98.3c-6.71-2.2-14.33-2.17-21.44.08-.34.11-.53.47-.42.81.11.34.47.53.81.42,6.86-2.17,14.19-2.2,20.64-.08.34.11.71-.07.81-.41.11-.34-.07-.7-.41-.82"/><path class="d" d="M165.92,83.41v.92c-.08,0,1.76.74,0,1.93v.93h4.23v-.98c-.17-.12-.23-.17-.34-.28-.6-.59-.32-1.05,0-1.32.21-.18.43-.28.4-.28v-.92h-4.31s0,.92,0,.92"/><path class="d" d="M196.45,86.26c1.75-1.18-.08-1.92,0-1.93v-.92h4.31s0,.93,0,.93c.08,0-1.75.74,0,1.92v.93h-4.31s0-.93,0-.93Z"/><path class="d" d="M151.32,87.91c-1.94-.99.09-1.59,0-1.6v-.78s-4.76,0-4.76,0v.77c-.09,0,1.94.62,0,1.61v.77s4.76,0,4.76,0v-.78Z"/><path class="d" d="M219.99,88.24v-.77c-1.94-.99.09-1.6,0-1.61v-.79h-4.75v.79c-.1,0,1.93.62-.01,1.61h0s.01.77.01.77h4.75Z"/><rect class="d" x="172.28" y="63.58" width="1.59" height="2.29"/><rect class="d" x="174.41" y="63.58" width="1.59" height="2.29"/><rect class="d" x="176.56" y="63.61" width="1.59" height="2.29"/><rect class="d" x="178.71" y="63.61" width="1.59" height="2.29"/><rect class="d" x="180.8" y="63.58" width="1.59" height="2.29"/><rect class="d" x="182.94" y="63.6" width="1.59" height="2.29"/><rect class="d" x="185.06" y="63.61" width="1.59" height="2.29"/><polygon class="d" points="188.77 63.64 188.77 63.58 187.18 63.58 187.18 63.64 187.18 65.9 188.77 65.9 188.77 63.64"/><path class="d" d="M170.21,67.57c-.11-.13-1.28-1.56-1.45-1.77-.3.25-1.37,1.16-1.53,1.29v.47c.31,0,2.87,0,2.98,0"/><path class="d" d="M196.29,66.96c-.17-.12-1.29-.94-1.59-1.16-.21.26-1,1.24-1.42,1.76.74,0,2.63-.01,3.01-.01,0-.23,0-.45,0-.59"/><rect class="d" x="142.64" y="96.92" width=".91" height="2.05"/><rect class="d" x="140.43" y="96.92" width=".91" height="2.05"/><rect class="d" x="138.16" y="96.91" width=".91" height="2.05"/><rect class="d" x="136.04" y="96.91" width=".91" height="2.05"/><rect class="d" x="133.99" y="96.91" width=".91" height="2.05"/><rect class="d" x="127.75" y="96.92" width=".91" height="2.05"/><rect class="d" x="125.55" y="96.92" width=".91" height="2.05"/><rect class="d" x="123.27" y="96.91" width=".91" height="2.05"/><rect class="d" x="121.16" y="96.91" width=".91" height="2.05"/><rect class="d" x="119.11" y="96.91" width=".91" height="2.05"/><rect class="d" x="236.77" y="99.26" width=".91" height="2.05"/><rect class="d" x="234.47" y="99.26" width=".91" height="2.06"/><rect class="d" x="232.28" y="99.26" width=".91" height="2.05"/><rect class="d" x="230.01" y="99.26" width=".91" height="2.05"/><rect class="d" x="227.72" y="99.26" width=".91" height="2.05"/><rect class="d" x="225.42" y="99.26" width=".91" height="2.05"/><rect class="d" x="210.64" y="96.98" width=".91" height="2.05"/><rect class="d" x="208.44" y="96.98" width=".91" height="2.05"/><rect class="d" x="206.32" y="96.97" width=".91" height="2.05"/><rect class="d" x="204.2" y="96.97" width=".91" height="2.05"/><rect class="d" x="202.15" y="96.97" width=".91" height="2.05"/><rect class="d" x="199.95" y="96.97" width=".91" height="2.05"/><rect class="d" x="164.3" y="96.92" width=".91" height="2.05"/><rect class="d" x="162.09" y="96.92" width=".91" height="2.05"/><rect class="d" x="159.82" y="96.91" width=".91" height="2.05"/><rect class="d" x="157.7" y="96.91" width=".91" height="2.05"/><rect class="d" x="155.65" y="96.91" width=".91" height="2.05"/><rect class="d" x="153.45" y="96.91" width=".91" height="2.05"/><rect class="d" x="174.83" y="70.39" width="1.59" height="9.7"/><rect class="d" x="177.67" y="70.39" width="1.59" height="9.7"/><rect class="d" x="180.33" y="70.32" width="1.59" height="9.76"/><rect class="d" x="183.07" y="70.32" width="1.59" height="9.76"/><rect class="d" x="185.77" y="70.32" width="1.59" height="9.76"/><rect class="d" x="192.76" y="70.25" width="2.49" height="9.83"/><rect class="d" x="168.89" y="70.41" width="2.49" height="9.68"/><path class="d" d="M185.68,50.93c0,.2-.16.36-.36.36h-7.07c-.2,0-.37-.16-.37-.36s.16-.37.37-.37h7.07c.2,0,.36.17.36.37"/><path class="d" d="M179.47,49.64c0,.13-.1.23-.22.23s-.23-.1-.23-.23v-1.06c0-.13.1-.23.23-.23s.22.1.22.23v1.06ZM178.26,50.4h6.99v-2.58h-6.99v2.58Z"/><path class="d" d="M180.76,27.43c.49-.23.72-1.14.72-1.14,0,0,.23,1.37-.11,1.78-.34.42-.91.12-1.52.45,0,0,.42-.87.91-1.1M178.26,30.46c.72-.8,1.56-.95,2.09-.99.44-.03,1.02.04,1.22.07v12.08c-.58.1-1.05.63-1.15,1.3-1.34.44-2.33,1.58-2.45,3.46h-.01c-.12,0-.22.09-.22.21s.1.2.22.21h.96s.04-1.81,1.06-2.68c-.34,1.15-.28,2.68-.28,2.68h5.93c.12,0,.22-.09.22-.21s-.1-.21-.22-.21h0c-.12-1.94-1.1-3.08-2.47-3.5-.11-.65-.56-1.16-1.13-1.27v-17.47c.08-.07.13-.16.13-.26,0-.19-.16-.35-.35-.35s-.35.16-.35.35c0,.11.05.2.14.27v.43c-1.56.87-3.99,2.11-4.33,3.56-.34,1.48.27,3.23-.64,4.17,1.44-1.06.95-1.06,1.67-1.86"/><path class="d" d="M240.86,102.03l-20.85.02v-2.2h3.45v-1.52h17.4v3.7ZM240.86,105.88h-20.57v-1.27h20.57v1.27ZM219.65,104.63h-5.77v-.87h5.59s.18,0,.18,0v.88ZM213.1,99.28v1.89h-11.12c-.17-.19-.72-.84-.72-.84h-8.14c-6.33-2.38-14.33-2.38-22.04.02-.08,0-.57,0-1.27,0-2.08,0-5.97.02-5.97.02,0,0-.57.73-.75.97h-10.33v-2s-.73-.89-.94-1.14v-1.92h13.49v-1.22h5.88l.2-.23c2.17-2.63,4.79-4.35,7.68-5.06l-.13.96c-3.49,1-6.33,3.55-7.7,6.99,1.11-.52,2.35-.73,3.65-1.02.28-.82,1.22-3,3.45-4.34-.89,1.83-1.24,3.25-1.37,3.96,1.77-.25,3.66-.36,5.62-.36,3.93,0,7.58.35,10.58,1.61-1.55-3.61-4.73-6.3-8.56-7.08l-.12-.9c3.24.56,6.5,2.27,9.43,4.99l.18.17h5.83c0,.39,0,1.43,0,1.43h14.12v1.95c-.21.25-.94,1.15-.94,1.15M213.23,105.88h-12.27v-2.12s12.27.03,12.27.03v2.09ZM200.31,104.55h-6.99c-8.92-3.13-14.2-2.8-21.94.11v-.03h-6.41v-1.5c.05-.07.11-.13.14-.18.66,0,3.06,0,4.71-.01.94,0,1.63,0,1.63,0l.2-.06c7.33-2.32,14.92-2.34,20.81-.05l.23.09h7.39c.05.06.14.16.23.27v1.36ZM173.6,115.73c1.67,0,3.02,1.35,3.02,3.03s-1.35,3.02-3.02,3.02-3.02-1.36-3.02-3.02,1.35-3.03,3.02-3.03M175.95,123.77h-4.57v-1.18h4.57v1.18ZM175.95,136.26h-4.57v-11.85h1.25v10.63h1.95v-10.63h1.36v11.85ZM152.26,103.92h12.07v1.99h-12.07v-1.99ZM170.73,127.21h-2.94l.51-1.58h-2.43l.45,1.58h-11.43l.5-1.54h-2.43l.44,1.54h-3.18v-5.21h-.99c1.07-.67,1.78-1.85,1.78-3.19,0-.83-.27-1.6-.73-2.22v-10.48h-3.19v8.95c-.45.02-.87.12-1.27.28l.02-10.07h5.76v9.7s0,9.15,0,9.15h.65v-17.56h12.07v17.56h.65v-18.66h0v-.19h5.77v11.06c-.56.65-.89,1.5-.89,2.43,0,1.34.71,2.53,1.78,3.19h-.9v5.26ZM170.73,128.82h-1.7v7.44h-1.15v-7.47h-1.73v7.47h-1.2v-7.46h-8.81v7.46h-1.15v-7.54h-1.73v7.54h-1.34v-7.51h-1.69v-.9h20.49v.97ZM163.68,136.27h-1.32v-6.08h1.32v6.08ZM149.59,123.77h-4.57v-1.12h4.57v1.12ZM149.59,136.26h-4.57v-11.85h1.27v10.55h1.95v-10.55h1.35v11.85ZM144.24,118.83c0-1.67,1.35-3.02,3.02-3.02s3.03,1.35,3.03,3.02-1.35,3.03-3.03,3.03-3.02-1.35-3.02-3.03M134.05,105.97v-2.05h11.16v2.05h-11.16ZM145.85,103.92h5.76v.7h-5.76v-.7ZM146.35,96.28h4.19v2.38s.74.89.94,1.14v1.54h-5.13v-5.06ZM173.35,87.04v-5.03h15.82v4.73c-2.49-.51-4.76-.74-6.8-.79-.31-.91-.6-1.72-.6-1.72,0,0-.32.8-.64,1.71-3.28.04-5.89.55-7.78,1.1M169.82,81.1h-2.34v-11.95h5.36v10.94h.84v-10.94h16.81v1.11h-1.61v9.83h2.48v-10.94h4.71v11.95h-26.24ZM166.72,67.83v-.86c0-.08.02-.16.09-.21l1.82-1.52c.05-.04.12-.06.19-.06.07,0,.13.04.18.09l1.95,2.37h21.6l1.91-2.36c.08-.11.24-.13.35-.05l1.89,1.38c.07.05.11.13.11.21v.98c0,.07-.02.13-.07.18-.05.05-.11.08-.18.08l-26.74.02h-2.81c-.13,0-.29-.11-.3-.25M169.75,62.68h1.9c.89-6.05,2.55-7.73,7.24-10.01-3.04,4.05-3.33,5.94-3.54,9.76h-1.85c-.06,0-.11.06-.11.13s.05.12.11.12h1.84s17.68,0,17.68,0c.22,0,.4.18.4.41s-.18.4-.4.4h-3.71v2.98h-17.65v-2.98h-1.9c-.22,0-.4-.18-.4-.4s.18-.41.4-.41M214.39,99.74c.21-.25.94-1.14.94-1.14v-2.41c1.81,0,2.4-.01,3.4,0v4.99c-.87,0-2.47,0-4.34,0v-1.43ZM179.39,129.45h1.47v3.57h-1.47v-3.57ZM179.39,127.85h5.73v.95h-5.73v-.95ZM185.12,133.01h-1.43v-3.57h1.43v3.57ZM183.04,133.01h-1.54v-3.57h1.54v3.57ZM188.98,129.45h1.47v3.57h-1.47v-3.57ZM188.98,127.85h5.73v.95h-5.73v-.95ZM194.71,133.01h-1.43v-3.57h1.43v3.57ZM192.63,133.01h-1.54v-3.57h1.54v3.57ZM198.58,129.47h1.47v3.57h-1.47v-3.57ZM198.58,127.87h5.73v.95h-5.73v-.95ZM198.58,126.69h5.73v.54h-5.73v-.54ZM204.31,133.03h-1.43v-3.57h1.43v3.57ZM202.23,133.03h-1.54v-3.57h1.54v3.57ZM207.98,129.49h1.47v3.57h-1.47v-3.57ZM207.98,127.9h5.73v.95h-5.73v-.95ZM207.98,126.69h5.73v.56h-5.73v-.56ZM213.7,133.06h-1.43v-3.57h1.43v3.57ZM211.63,133.06h-1.54v-3.57h1.54v3.57ZM217.29,129.47h1.47v3.57h-1.47v-3.57ZM217.29,127.87h5.73v.95h-5.73v-.95ZM217.29,126.69h5.73v.54h-5.73v-.54ZM223.02,133.03h-1.43v-3.57h1.43v3.57ZM220.95,133.03h-1.54v-3.57h1.54v3.57ZM226.52,129.47h1.47v3.57h-1.47v-3.57ZM226.52,127.87h5.73v.95h-5.73v-.95ZM226.52,126.69h5.73v.54h-5.73v-.54ZM230.17,133.03h-1.54v-3.57h1.54v3.57ZM141.39,127.23h-5.73v-.63h5.73v.63ZM141.39,128.83h-5.73v-.95h5.73v.95ZM141.39,133.04h-1.43v-3.57h1.43v3.57ZM139.31,133.04h-1.54v-3.57h1.54v3.57ZM137.12,133.04h-1.47v-3.57h1.47v3.57ZM247.37,92.36c.01-.32.03-.64.04-.95l-2.48,2.48-.09.1v1.41h-1.18s-.65,0-.65,0v1.38h-1.5s-.65,0-.65,0v.27h-18.69v1.52c-.68,0-1.89,0-2.19,0v-3.65s-17.58,0-18.76,0c0-.39,0-1.43,0-1.43,0,0-6.18,0-6.62,0-.31-.28-.63-.55-.94-.82h20.04v.86h6.28v-2.22h-28.15c-2.82-1.9-5.83-2.98-8.81-3.16-.04-.21-.11-.47-.2-.77,3.17.11,6.89.67,11.09,2.04l.1.03h5.41v1.22h20.55v-1.37h-19.18v-1.22h-6.57c-.36-.12-.71-.22-1.06-.33v-5.74h3.82v-13.29h.45v-2.68s-1.2-.72-1.23-1.07c-.64-6.6-5.13-11.97-11.03-13.5h-6.87c-3.48.9-6.47,3.15-8.47,6.19-1.38,2.09-2.29,4.56-2.56,7.24-.04.38-1.26,1.14-1.26,1.14v2.68h.56v13.29h4.84v5.7c-.78.31-1.3.58-1.53.7h-3.92v.85h-13.92v.34h-6.25v-.34h-29.09c0,.46,0,.91.02,1.37h50.62v-.85h2.92l.16-.09c.05-.03,3.72-2.12,10.23-2.33-.11.34-.19.64-.23.86-2.58.32-5,1.34-7.14,3.01h-56.54c.02.46.03.91.06,1.37h28.97v.8h6.28v-.8h19.66c-.37.37-.74.76-1.09,1.18h-6.59v1.22h-47.07c.04.43.08.86.13,1.29h27.96v5.06h-27.2c.17.87.35,1.73.55,2.58h11.03v2.09s-10.5.01-10.5.01c.06.22.12.43.18.65h10.31s0,8.3,0,8.3v9.12h.64v-20.17h3.34v2.7s11.8,0,11.8,0l-.02,8.36v.71c-.74.49-1.3,1.24-1.55,2.12v-2.17h-2.06v3.8h1.98c.18,1.08.82,2.01,1.72,2.57h-.9v3.95h-9.68l.4-1.22h-2.43l.35,1.22h-4.91c.15.22.3.43.45.65h3.44v4.48c.23.27.45.54.68.8v-5.28h2.33v7.08h6.38v.55h-5.54v.65h6.19v-8.28h2.35v9.66h-7.53c.48.46.97.92,1.47,1.37h19.34v-7.46h3.28v7.46h64.89c.5-.45.99-.9,1.92-1.37h-51.17s.02-9.57.02-9.57h2.15v6.97h6.38v.55h-5.54v.65h6.19v-8.16h2.56v6.97h6.37v.55h-5.54v.65h6.18v-8.16h2.58v6.99h6.37v.55h-5.54v.65h6.18v-8.19h2.38v7.01h6.37v.55h-5.54v.64h6.18v-8.21h2.3v6.99h6.37v.55h-5.54v.65h6.18v-8.19h2.2v6.99h3.97c.33-.35.65-.7.97-1.06v-3.15h1.43v1.5c.22-.27.43-.54.65-.81v-3.47h2.64c.15-.21.3-.43.45-.64h-.78l.41-1.25h-2.43l.36,1.25h-7.85l.4-1.21h-2.43l.34,1.21h-7.68l.39-1.21h-2.43l.34,1.21h-7.68l.4-1.21h-2.43l.35,1.21h-7.81l.4-1.25h-2.43l.36,1.25h-7.83l.41-1.25h-2.43l.35,1.25h-9.69v-4.1h-.99c1.06-.67,1.78-1.85,1.78-3.19,0-2.07-1.69-3.76-3.76-3.76-.83,0-1.6.28-2.23.74v-10.49h6.65s-.01,9.74-.01,9.74v9.12h.65v-18.89h8.64s0,9.77,0,9.77v9.12h.64v-18.92h5.34s0,18.87,0,18.87h.64v-18.85h6.38v18.85h.65v-17.52h12.27v17.6h.64v-18.85h5.77v18.85h.65v-17.6h20.57v11.16c.22-.45.43-.91.65-1.37v-9.79h3.58c.06-.21.12-.43.17-.64h-3.75v-2.83h4.44c.05-.22.1-.43.14-.65h-4.57v-2.03h4.96c.04-.22.08-.43.11-.65h-5.07v-2.31h5.41c.03-.21.05-.43.08-.65h-3.34v-.74h3.42c.02-.21.05-.43.06-.64h-1.66v-1.06h1.76c.02-.22.03-.43.05-.65h-1.24c.38-.38.88-.88,1.32-1.32"/><path class="d" d="M233.51,140.1c-13.01,13-30.92,21.03-50.76,21.03-19.85,0-37.75-8.03-50.76-21.03-13-13.01-21.03-30.92-21.03-50.76,0-19.85,8.02-37.75,21.03-50.77,13.01-13,30.92-21.02,50.76-21.02,19.84,0,37.75,8.02,50.76,21.02,13,13.01,21.02,30.92,21.03,50.77,0,19.84-8.03,37.74-21.03,50.76M182.74,4.29c-46.97,0-85.04,38.07-85.05,85.05,0,46.97,38.07,85.04,85.05,85.05,46.97,0,85.04-38.08,85.05-85.05,0-46.97-38.07-85.04-85.05-85.05"/><polygon class="e" points="117.1 45.96 137.5 55.51 137.48 49.34 160.24 72.99 159.07 75.43 144.96 67.89 143.8 77.86 117.1 45.96"/><polygon class="e" points="149.14 18.31 161.61 34.12 164.23 28.93 171.29 50.62 169.52 51.89 162.75 44.48 159.42 49.87 149.14 18.31"/><polygon class="e" points="248.38 45.96 227.99 55.51 228 49.34 205.24 72.99 206.42 75.43 220.53 67.89 221.69 77.86 248.38 45.96"/><polygon class="e" points="216.35 18.31 203.88 34.12 201.26 28.93 194.2 50.62 195.97 51.89 202.74 44.48 206.07 49.87 216.35 18.31"/><polygon class="d" points="122.1 50.04 138.96 59.56 139.04 53.29 157.73 72.76 143.27 65.14 143.34 71.49 122.1 50.04"/><polygon class="d" points="152.27 24.38 161.58 37.5 163.91 33.16 168.89 48.5 162.43 41.42 160.21 45.44 152.27 24.38"/><polygon class="d" points="243.38 50.04 226.53 59.56 226.45 53.29 207.76 72.76 222.22 65.14 222.15 71.49 243.38 50.04"/><polygon class="d" points="213.21 24.38 203.9 37.5 201.58 33.16 196.6 48.5 203.05 41.42 205.28 45.44 213.21 24.38"/></g></svg>